<?xml version="1.0" standalone="no"?>
<!DOCTYPE svg PUBLIC "-//W3C//DTD SVG 20010904//EN"
 "http://www.w3.org/TR/2001/REC-SVG-20010904/DTD/svg10.dtd">
<svg version="1.0" xmlns="http://www.w3.org/2000/svg"
 width="421.000000pt" height="421.000000pt" viewBox="0 0 421.000000 421.000000"
 preserveAspectRatio="xMidYMid meet">
<metadata>
Created by potrace 1.14, written by Peter Selinger 2001-2017
</metadata>
<g transform="translate(0.000000,421.000000) scale(0.100000,-0.100000)"
fill="#000000" stroke="none">
<path d="M0 2105 l0 -2105 2105 0 2105 0 0 2105 0 2105 -2105 0 -2105 0 0
-2105z m1957 1296 c302 -73 464 -239 717 -735 28 -55 56 -99 61 -98 6 0 15 22
22 49 110 450 158 622 185 664 41 61 108 93 187 87 67 -5 99 -26 126 -80 19
-40 18 -52 -30 -218 -7 -25 -20 -74 -30 -110 -10 -36 -23 -83 -30 -105 -7 -22
-21 -67 -30 -100 -17 -63 -97 -318 -116 -370 -43 -121 -89 -268 -89 -282 0
-17 24 -86 90 -263 17 -47 37 -103 45 -125 7 -22 34 -98 59 -170 101 -285 176
-517 176 -546 0 -110 -121 -161 -245 -103 -88 42 -111 79 -167 274 -6 19 -16
53 -23 75 -7 22 -27 87 -45 145 -54 175 -73 230 -79 235 -13 8 -27 -11 -71
-99 -24 -50 -55 -105 -67 -123 -13 -19 -23 -36 -23 -38 0 -2 -21 -34 -46 -72
-236 -347 -522 -499 -872 -461 -241 25 -428 137 -584 348 -104 141 -177 327
-224 570 -24 122 -27 590 -5 710 60 332 150 533 318 707 101 104 168 150 293
200 133 54 353 69 497 34z"/>
<path d="M1593 3089 c-149 -63 -271 -224 -329 -437 -47 -171 -59 -279 -59
-527 0 -212 15 -363 45 -460 44 -141 96 -262 127 -293 7 -7 13 -17 13 -22 0
-19 138 -146 187 -173 161 -86 345 -72 493 38 66 48 162 150 211 222 58 86
153 267 205 390 20 48 43 102 50 120 8 17 14 35 14 41 0 5 7 23 15 38 19 36
19 74 1 116 -8 18 -22 53 -32 78 -10 25 -26 65 -36 90 -11 25 -23 54 -27 65
-88 209 -210 433 -286 524 -45 53 -113 115 -163 148 -84 55 -150 73 -261 73
-84 -1 -105 -4 -168 -31z"/>
</g>
</svg>
